<svg width="900" height="904" viewBox="0 0 900 904" fill="none" xmlns="http://www.w3.org/2000/svg">
<path d="M512.304 257.707C462.962 305.047 443.312 267.696 350.549 248.245C257.785 228.794 189.543 272.627 157.856 318.413C112.405 384.087 102.572 451.978 111.739 531.294C120.906 610.611 183.796 613.224 231.707 611.64C270.035 610.373 280.302 636.986 281.84 652.29C288.966 723.219 302.243 771.503 349.553 784.795C396.474 797.978 433.457 766.863 467.515 705.28C494.762 656.013 519.641 665.107 528.674 675.812C603.678 737.637 650.193 698.332 665.156 682.438C680.119 666.544 722.068 607.672 670.204 532.302C618.64 457.367 641.621 421.682 659.454 393.991L659.764 393.51C677.637 365.751 699.623 338.336 713.465 312.042C727.308 285.749 725.179 239.903 682.62 218.266C628.712 190.86 573.982 198.532 512.304 257.707Z" fill="#F1F7FC" fill-opacity="0.5"/>
</svg>
