<svg width="112" height="119" viewBox="0 0 112 119" fill="none" xmlns="http://www.w3.org/2000/svg">
<path d="M23.7748 109.971C49.1276 125.277 77.4141 112.368 87.2343 103.981C87.5993 103.67 87.9701 103.381 88.3648 103.108C109.071 88.7781 115.09 58.0822 107.557 43.6554C98.4722 26.2579 106.358 18.2989 108.068 10.0412C102.869 15.444 97.0453 13.8937 76.8943 17.2421C56.7433 20.5905 61.9297 40.0385 62.1951 46.6208C62.4606 53.203 57.2898 56.7791 54.0792 51.6139C51.5107 47.4817 55.4677 32.3876 57.7672 25.357C59.2473 4.91394 45.722 0.322973 38.7744 0.582877C25.2665 4.47077 8.5148 3.77771 1.8274 2.9452C8.64735 11.0889 0.348256 28.1392 1.17792 45.6938C2.00759 63.2483 15.8695 64.9207 34.177 62.6407C45.0483 61.2867 47.3804 65.347 46.9374 69.2595C46.6741 71.5852 44.0961 72.5781 41.8089 72.0811C17.2423 66.7428 12.2613 80.6221 12.9511 88.6311C14.5628 98.0113 8.53267 106.837 5.31614 110.077C11.9872 107.796 17.104 105.943 23.7748 109.971Z" fill="white" fill-opacity="0.3"/>
</svg>
