<svg xmlns="http://www.w3.org/2000/svg" viewBox="0 0 44 52"><path d="M36 4.5c4.2 3.2 7 7.9 7.6 13.2.8 6.4-1 12.1-5.6 16.9-.3.2-.4.6-.4.9v14.7c0 1.1-.4 1.5-1.5 1.5H15.4c-1.1 0-1.5-.4-1.5-1.5v-5.3H8.6c-1.2 0-2.4-.4-3.3-1.3-.8-.8-1.3-2-1.3-3.2v-6.1H2.9c-.9 0-1.8-.5-2.3-1.2-.5-.7-.6-1.6-.3-2.4.7-1.7 1.4-3.5 2.3-5.3.6-1.2.9-2.6.8-4C3 11.7 9.4 3.1 18.7.8 25-.7 30.8.5 36 4.5zm-.8 44.8v-3.9-10.6c0-.6.2-1.1.6-1.5 1.3-1.2 2.4-2.6 3.2-4.1 3.4-5.9 3.1-13.2-.7-18.8-3.8-5.6-10.5-8.6-17.2-7.6-6.7 1-12.3 5.7-14.4 12.1-.8 2.6-1.1 5.3-.7 8 0 .4 0 .8-.2 1.1-.7 1.6-1.4 3.3-2.1 4.9L2.8 31c-.1.3-.2.5-.1.7.1.1.3.2.7.2H5c1.1 0 1.5.4 1.5 1.5v6.8c0 1.6.8 2.4 2.4 2.4h6c.4-.1.8.1 1.1.3.3.3.4.7.3 1.1v5.4h18.9z" fill="#26276d"/><path d="M27.2 15.5c1.8 1.2 2.9 3.1 3 5.2.2 2.4-.9 4.8-2.9 6.1-.2.1-.3.3-.3.5 0 .3-.1.6-.1 1 0 .3-.1.7-.1 1-.1.6-.1 1.1-.2 1.7-.1.9-.5 1.3-1.5 1.3h-3.7c-.3 0-.7-.1-.9-.3-.3-.2-.4-.6-.4-.9l-.1-.4c-.1-.9-.2-1.9-.3-2.8 0-.5-.3-1-.7-1.3-2-1.5-3-4-2.5-6.4.3-2.6 2.1-4.8 4.7-5.6 2-.5 4.2-.2 6 .9zm-2.8 13.7v-.3c.1-.8.2-1.7.3-2.5 0-.4.2-.8.6-1l.4-.2h.1s.1 0 .1-.1c1.2-.8 2-2.1 2-3.6.1-1.5-.6-2.9-1.8-3.7-1-.7-2.3-1-3.5-.8-1.2.2-2.3.9-3 2-.7 1-.9 2.2-.6 3.4.3 1.2 1 2.2 2.1 2.9.6.3 1 1 1 1.7.1.7.1 1.5.2 2.2 0 .1 0 .3.1.4 0 .2 0 .3.1.5h1.9V30v-.1c0-.1 0-.2.1-.3-.2-.1-.1-.2-.1-.4z" fill="#26276d"/><path d="M15.4 15.1l.7.7c.2.2.5.4.8.4.2 0 .4-.1.6-.1.6-.2.7-.7.7-1.3 0 0 0-.1-.1-.1-.1-.2-.1-.3-.3-.5-.5-.5-1-1.1-1.6-1.6-.2-.2-.5-.4-.9-.4-.3 0-.6.1-.9.4-.2.2-.4.6-.3.9 0 .3.2.6.4.8.4.2.7.5.9.8zM29.3 15.9c.2.1.3.1.5.1.3 0 .6-.1.8-.3.4-.4.9-.8 1.3-1.2l.2-.2c.3-.2.4-.5.5-.9 0-.3-.1-.7-.3-.9-.2-.2-.6-.4-.9-.4-.3 0-.7.2-.9.4-.5.5-1 .9-1.4 1.4-.1.2-.2.3-.3.5-.1.1-.1.2-.1.3v.1c-.2.5.1.9.6 1.1zM22.1 11.1v1.1c0 .3.1.6.3.9.2.2.5.3.9.3.7 0 1.2-.5 1.2-1.2V10c0-.3-.1-.6-.4-.9-.2-.2-.5-.3-.9-.3-.6 0-1.2.6-1.2 1.2v.7c.1.2.1.3.1.4zM15.4 21.2c0-.6-.5-1.1-1.1-1.1H12c-.5 0-.9.3-1.1.7-.2.4-.1.9.2 1.3.2.2.5.4.7.4.4 0 .8.1 1.2.1h1.2c.8-.2 1.3-.8 1.2-1.4zM34.5 20.1h-2.1c-.3 0-.6.1-.9.3-.2.2-.4.5-.4.9 0 .3.1.6.3.9.2.2.5.4.8.4H34.3c.7 0 1.2-.6 1.2-1.2 0-.3-.1-.6-.4-.8.1-.4-.2-.5-.6-.5zM16.2 26.8c-.6.5-1.2 1.1-1.8 1.7-.3.3-.4.8-.2 1.2.2.4.6.7 1.1.7.1 0 .1 0 .2-.1.2 0 .3-.1.5-.2.6-.5 1.2-1.1 1.8-1.8.4-.5.3-1.1-.1-1.5-.4-.3-1-.4-1.5 0zM30.7 27c-.2-.1-.3-.2-.5-.3l-.2-.1c-.5 0-1 .2-1.2.7-.2.4-.1 1 .2 1.3l1.5 1.5c.2.2.6.4.9.4.3 0 .6-.1.9-.4.2-.2.3-.5.3-.9 0-.3-.2-.6-.4-.8-.6-.5-1-1-1.5-1.4z" fill="#3abeb7"/><path d="M24.4 28.9c0 .3-.1.5-.1.7 0 .1 0 .2-.1.3v.1h-1.9c0-.3-.1-.6-.1-.9-.1-.7-.2-1.5-.2-2.2 0-.7-.4-1.4-1-1.7-1.1-.6-1.8-1.7-2.1-2.9-.3-1.2 0-2.4.6-3.4.7-1 1.8-1.7 3-2 1.2-.2 2.5.1 3.5.8 1.2.9 1.9 2.3 1.8 3.7 0 1.5-.8 2.8-2 3.6-.1 0-.1.1-.2.1l-.4.2c-.4.2-.6.6-.6 1 0 .9-.1 1.8-.2 2.6z" fill="#fac319"/></svg>