<svg xmlns="http://www.w3.org/2000/svg" viewBox="0 0 52 52"><path d="M36.4 49.9h4.3V18.5c0-1.2.3-1.5 1.5-1.5h5.3c1.1 0 1.5.3 1.5 1.5v31.4h1.8c.3 0 .6.1.8.3.2.2.3.5.3.7 0 .5-.3.9-.7 1-.3 0-.5.1-.8.1H1.1c-.5 0-1-.5-.9-1.1 0-.5.4-1 .9-1h2V36.2c0-1.2.3-1.5 1.5-1.5H10c1.1 0 1.4.4 1.4 1.4v13.7h4.3v-25c0-1.2.3-1.5 1.5-1.5h5.3c1.1 0 1.4.3 1.4 1.4v25.1h4.3V32c0-1.1.3-1.4 1.4-1.4H35c1.1 0 1.4.4 1.4 1.5v17.8zm10.4 0V19.2h-4v30.7h4zm-29 0V25.5h4v24.4h-4zm16.5 0V32.8h-4v17.1h4zm-25.1 0h-4v-13h4v13z" fill="#26276d"/><path d="M41.1 6.8c-1.2-1.9-.8-4.4 1.1-5.7 1.6-1.1 3.8-1 5.2.4 1.6 1.4 1.8 3.7.6 5.4-1.2 1.7-3.4 2.3-5.3 1.4l-7.3 7.3c1.2 1.6 1.1 3.7-.2 5.2s-3.4 1.9-5.1.9c-1.7-.9-2.6-2.9-2-4.8.1-.1.1-.3 0-.4l-.3-.3c-1.2-.7-2.3-1.4-3.4-2.2-.5-.3-.9-.6-1.4-.9-.7.9-1.7 1.5-2.8 1.7-1.1.1-2.3-.1-3.2-.8l-.8.7c-2 1.6-3.9 3.3-5.9 5 .7.9 1 2 .9 3.1-.2 1.7-1.5 3.1-3.2 3.5-1.7.4-3.5-.4-4.4-1.9-.9-1.5-.8-3.4.2-4.8 1.1-1.4 2.9-1.9 4.6-1.4.2 0 .4 0 .5-.1 2.2-1.8 4.4-3.7 6.6-5.5.1-.1.2-.3.1-.5-.6-1.6-.2-3.3 1.1-4.4 1.1-1.2 2.8-1.5 4.3-.9 1.6.5 2.7 2 2.7 3.7 0 .5.2.9.6 1.1 1.6 1 3.1 1.9 4.7 2.9.2.2.5.2.7 0 1.1-.7 2.4-.9 3.6-.5.1 0 .4 0 .5-.1 2.5-2.3 4.9-4.7 7.3-7.1 0 .1 0 .1 0 0zm3.5-.2c.8 0 1.6-.5 1.9-1.2.3-.8.2-1.7-.4-2.3-.6-.6-1.5-.8-2.3-.5-.8.3-1.3 1.1-1.3 1.9 0 .5.2 1.1.6 1.5.4.4.9.6 1.5.6zM9.1 22.3c0 1.1-.9 2.1-2.1 2.1-.6 0-1.1-.2-1.5-.6-.4-.4-.6-.9-.6-1.5 0-1.1 1-2.1 2.1-2 1.2-.1 2.1.8 2.1 2zm23-2.2c1.1 0 2-.9 2.1-2.1 0-.6-.2-1.1-.6-1.5-.4-.4-.9-.6-1.5-.6-1.1.1-2.1 1-2.1 2.2 0 .6.2 1.1.6 1.5.4.3.9.5 1.5.5zm-14.6-9.4c0-1.1 1-2 2.1-2 .9 0 1.6.5 1.9 1.3.3.8.1 1.7-.5 2.3-.6.6-1.5.7-2.3.4-.8-.4-1.3-1.2-1.2-2z" fill="#26276d"/><path d="M46.8 49.9V19.2h-4V50h4zM17.7 25.5v24.4h4V25.5h-4zM34.3 49.9V32.8h-4V50h4zM5.4 49.9h4v-13h-4v13z" fill="#3abeb7"/><path d="M7.1 24.3c.8 0 1.6-.5 1.9-1.2.3-.8.2-1.7-.4-2.3-.6-.6-1.5-.8-2.3-.5-.7.3-1.3 1.1-1.3 1.9 0 .5.2 1.1.6 1.5.4.4.9.6 1.5.6zM19.6 12.9c1.1 0 2.1-.9 2.1-2.1 0-1.1-.9-2.1-2.1-2.1-1.1 0-2.1.9-2.1 2 0 .6.2 1.1.6 1.5.4.5 1 .7 1.5.7zM44.6 6.6c1.1 0 2-.9 2.1-2.1 0-.8-.5-1.6-1.3-1.9-.8-.3-1.7-.2-2.3.4-.6.6-.8 1.5-.5 2.3.4.8 1.2 1.3 2 1.3zM32.1 16c-1.1 0-2.1.9-2.1 2 0 .9.4 1.7 1.2 2 .8.4 1.7.2 2.3-.4.6-.6.8-1.5.5-2.3-.3-.8-1.1-1.3-1.9-1.3z" fill="#fac319"/></svg>