<svg width="52" height="62" viewBox="0 0 52 62" fill="none" xmlns="http://www.w3.org/2000/svg">
<path d="M28.7366 53.9871C28.7629 53.945 28.7941 53.9062 28.8295 53.8713C28.9636 53.4855 29.2935 53.2007 29.6947 53.1243C30.0959 53.0479 30.5074 53.1915 30.774 53.501C31.5611 54.2417 32.3017 55.0058 33.1123 55.7235C33.3073 55.8817 33.5567 55.9567 33.8065 55.9322C34.2125 55.8734 34.5467 55.5828 34.6614 55.1889C34.7761 54.795 34.6501 54.3705 34.3391 54.1029C33.5749 53.3393 32.8113 52.5752 32.0701 51.8093C31.8187 51.6005 31.6677 51.2949 31.6544 50.9683C31.6412 50.6418 31.7671 50.3249 32.0008 50.0964C32.2323 49.8684 32.5479 49.7465 32.8725 49.7597C33.1972 49.7728 33.5019 49.9198 33.7142 50.1658C34.4784 50.9299 35.2655 51.6935 36.0291 52.4594C36.5381 52.9684 36.932 52.9684 37.4181 52.4823C37.9971 51.9268 37.9971 51.5313 37.4181 50.9546C36.4923 50.0036 35.5429 49.0794 34.6171 48.1301C34.2922 47.8405 34.1735 47.3839 34.3162 46.9727C34.4296 46.5561 34.7716 46.2413 35.1961 46.1626C35.6473 46.0821 36.1069 46.25 36.4 46.6023L39.178 49.3804C39.3862 49.6598 39.7511 49.7729 40.0809 49.6601C40.4808 49.5779 40.7967 49.2713 40.891 48.8741C40.9853 48.4769 40.8408 48.061 40.5206 47.8079C36.2842 43.5944 32.0707 39.358 27.8337 35.1445C27.7276 35.0501 27.6272 34.9496 27.5327 34.8435C27.4505 34.9072 27.3731 34.977 27.3011 35.0522C26.3753 35.9322 25.4724 36.8115 24.5695 37.6915C23.8416 38.4343 22.854 38.8658 21.8144 38.8953C19.8464 38.9882 17.879 36.9973 17.5316 35.5618C17.4119 35.0462 17.3728 34.5152 17.4158 33.9876C17.5097 33.0898 17.9299 32.2578 18.5967 31.6493L21.4441 28.8019C21.1896 28.5703 20.9809 28.3622 20.7264 28.1306C17.1383 31.7886 13.5727 35.4231 9.98572 39.0576C11.2824 40.3079 12.5556 41.5117 13.8518 42.7849C14.014 42.5998 14.1315 42.4375 14.2434 42.2988C14.9147 41.6275 15.586 40.9098 16.3037 40.2614C17.4752 39.2308 19.2299 39.2308 20.4014 40.2614C21.1607 40.8284 21.6544 41.6818 21.7675 42.6227C22.8068 42.7633 23.7349 43.3454 24.3139 44.2198C24.9259 45.0628 25.0899 46.1507 24.7536 47.1366C24.798 47.1702 24.8443 47.2012 24.8923 47.2294C26.3278 48.063 27.2978 49.6136 26.7675 51.2113C26.7445 51.2807 26.8603 51.4659 26.9756 51.5352C27.8057 52.1471 28.4219 53.005 28.7366 53.9871Z" fill="#F7F8FB"/>
<path d="M28.0887 56.881C28.6442 57.4829 29.2691 58.1083 29.871 58.7332C30.0904 59.0415 30.4936 59.1575 30.8433 59.0129C31.2798 58.8477 31.5909 58.4567 31.6539 57.9942C31.6523 57.8083 31.587 57.6286 31.4687 57.4852C30.6122 56.6052 29.7345 55.751 28.9223 54.9387C28.6442 55.5384 28.3685 56.2097 28.0887 56.881Z" fill="#F7F8FB"/>
<path d="M16.7703 23.1736C12.765 27.2483 8.76013 31.3225 4.79895 35.3508C5.77121 36.3231 6.67409 37.2489 7.62341 38.1753L19.6155 25.9751C18.6432 25.0487 17.7169 24.1246 16.7703 23.1736Z" fill="#37BEB7"/>
<path d="M36.9783 23.0114C35.9826 24.0065 35.0568 24.9329 34.2003 25.7664C38.2281 29.8641 42.2799 33.9853 46.3082 38.0595C47.2804 37.0872 48.2298 36.1609 49.0862 35.3044C45.0579 31.2297 41.0067 27.109 36.9783 23.0114Z" fill="#37BEB7"/>
<path d="M26.4219 1.75941C23.2189 1.75293 20.6172 4.34415 20.6107 7.54706C20.6042 10.75 23.1955 13.3517 26.3984 13.3582C29.6013 13.3647 32.203 10.7735 32.2095 7.57057C32.2165 6.03129 31.6097 4.5527 30.5235 3.46205C29.4373 2.37141 27.9612 1.75865 26.4219 1.75941Z" fill="#FBC316"/>
<path d="M33.8767 14.1219C33.2054 13.219 32.557 12.3877 31.9087 11.5061C31.4445 12.1756 30.8557 12.7494 30.1745 13.1961C29.5032 13.6128 28.762 13.9597 28.0677 14.3306C28.7161 15.187 29.3645 16.0647 30.0587 16.9699C30.3597 16.2521 30.6606 15.5579 30.9386 14.8631C31.034 14.5982 31.2634 14.4041 31.5406 14.3541C31.7028 14.3311 31.888 14.3076 32.0496 14.2847C32.6493 14.2612 33.2283 14.1913 33.8767 14.1219Z" fill="#F7F8FB"/>
<path d="M18.1801 14.1219C18.2634 14.1446 18.3486 14.1602 18.4346 14.1683C19.1059 14.2377 19.7772 14.3305 20.4485 14.3999C20.7439 14.4279 21.0009 14.6141 21.1198 14.886C21.1835 15.0123 21.2378 15.1432 21.282 15.2776C21.5136 15.8331 21.7452 16.4121 21.9997 17.0118C22.6945 16.0854 23.3658 15.206 24.0371 14.3266C21.8839 13.4002 21.8839 13.4002 20.1016 11.5715C19.4303 12.3855 18.8284 13.2425 18.1801 14.1219Z" fill="#F7F8FB"/>
<path fill-rule="evenodd" clip-rule="evenodd" d="M7.36883 40.9776C8.57268 42.135 9.77653 43.2924 11.0962 44.5656C10.962 44.6855 10.83 44.8011 10.6992 44.9157C10.4007 45.1772 10.1082 45.4335 9.80954 45.7225C8.67407 46.84 8.58363 48.6409 9.60144 49.8666C10.1757 50.6551 11.0422 51.1805 12.0069 51.325C12.2767 52.9261 13.5312 54.1806 15.1323 54.4504C15.4264 56.0344 16.6716 57.2702 18.2578 57.5523L18.2621 57.5654C18.2836 57.6305 18.3056 57.6969 18.3271 57.7839C18.5953 59.0719 19.5453 60.1106 20.8042 60.4926C21.9984 60.8827 23.3097 60.506 24.1148 59.5416C24.2753 59.38 24.4363 59.2135 24.5999 59.0443C24.788 58.8497 24.9796 58.6516 25.1777 58.4535C25.5193 58.7952 25.8491 59.1309 26.1729 59.4606C26.4854 59.7787 26.7924 60.0912 27.0992 60.398C27.7176 61.0622 28.5985 61.4182 29.5047 61.3703C31.0674 61.2499 32.3754 60.1381 32.7459 58.6152C32.7765 58.4129 32.9352 58.2542 33.1375 58.2236C34.4905 57.9026 35.5366 56.8293 35.8227 55.4685C35.8826 55.2683 35.9773 55.2236 36.1215 55.1556L36.1565 55.139C36.1683 55.1333 36.1805 55.1274 36.193 55.1211C36.7021 54.9128 37.1903 54.6569 37.6514 54.357C38.3983 53.8267 38.8794 52.9994 38.971 52.088C39.0444 52.0696 39.1141 52.0549 39.1802 52.041C39.281 52.0197 39.3734 52.0003 39.4572 51.9722C40.6807 51.6284 41.6369 50.6722 41.9807 49.4487C42.3392 48.2895 41.9638 47.0284 41.0297 46.2539C40.6593 45.9065 40.2655 45.5362 39.8952 45.1659C40.6558 44.426 41.4012 43.6973 42.1432 42.9719L42.1445 42.9706C42.983 42.1509 43.8171 41.3354 44.6642 40.5127C45.4999 40.9546 45.7757 40.9082 46.5628 40.1211L50.4982 36.1856C51.2389 35.445 51.2389 34.8889 50.4982 34.1483L49.5538 33.2098C46.3545 30.0304 43.1708 26.8667 39.988 23.6839C39.4672 23.1631 38.9405 22.6422 38.4139 22.1212C37.8872 21.6003 37.3605 21.0793 36.8397 20.5585C36.1449 19.8872 35.543 19.8872 34.8717 20.5585L30.7046 24.7256C30.0563 25.3739 30.0563 25.9759 30.7046 26.6471C30.8902 26.8485 31.0856 27.0385 31.2783 27.226L31.2788 27.2265C31.374 27.3191 31.4686 27.4111 31.5611 27.5036C31.4892 27.5931 31.4118 27.6781 31.3295 27.7581C30.2179 28.8697 29.2686 28.8697 28.1576 27.7352L28.1382 27.7158L28.1382 27.7158C27.8667 27.4448 27.5951 27.1738 27.3012 26.9252C26.1409 25.8958 24.4676 25.6843 23.0877 26.3926C22.6549 26.6246 22.2442 26.8957 21.8609 27.2026C21.6523 27.0175 21.4207 26.8088 21.2126 26.6007C21.6058 25.7208 21.56 25.4198 20.8652 24.725C20.4109 24.2709 19.9593 23.8168 19.5086 23.3636L19.5053 23.3604L19.505 23.36L19.5046 23.3596L19.5042 23.3592C18.6238 22.4739 17.7468 21.5921 16.8598 20.7202C16.1421 19.9795 15.5401 19.9795 14.8224 20.7202C13.3203 22.2574 11.8123 23.7887 10.3043 25.3201L10.3041 25.3202C8.81421 26.8331 7.32425 28.3461 5.83996 29.8649C5.14722 30.5697 4.45902 31.2745 3.77083 31.9792L3.77078 31.9793C2.98961 32.7793 2.20843 33.5793 1.42062 34.3793C1.13537 34.6019 0.968628 34.9436 0.968628 35.3054C0.968628 35.6673 1.13537 36.0089 1.42062 36.2315C1.8791 36.6898 2.34 37.1482 2.80173 37.6074L2.80193 37.6076C3.76264 38.563 4.72694 39.522 5.68053 40.4914C6.00297 40.8581 6.50978 41.0029 6.97724 40.8618C7.11832 40.8427 7.26083 40.8848 7.36883 40.9776ZM27.7186 53.8724C27.6832 53.9072 27.652 53.9461 27.6257 53.9882L27.624 53.9905C27.3102 53.0078 26.6946 52.149 25.8647 51.5363C25.7489 51.467 25.6331 51.2818 25.656 51.2124C26.1863 49.6153 25.2163 48.0641 23.7809 47.2305C23.7329 47.2024 23.6866 47.1716 23.6421 47.1382C23.9786 46.1521 23.8146 45.064 23.2024 44.2209C22.6234 43.3465 21.6953 42.7644 20.656 42.6238C20.5431 41.6829 20.0493 40.8294 19.2899 40.2625C18.1184 39.2319 16.3637 39.2319 15.1922 40.2625C14.6789 40.7263 14.1893 41.2255 13.7064 41.7179L13.7063 41.718L13.7061 41.7182L13.706 41.7183C13.5139 41.9142 13.3229 42.1089 13.1319 42.2999C13.0961 42.3443 13.0598 42.3911 13.0216 42.4403L13.0215 42.4403C12.9403 42.5448 12.8507 42.6601 12.7404 42.786C11.8791 41.94 11.028 41.1247 10.1734 40.306L10.1731 40.3056L10.1714 40.304C9.74047 39.8912 9.30869 39.4775 8.87427 39.0587C12.39 35.4963 15.8848 31.934 19.4012 28.3496L19.6149 28.1317C19.7421 28.2474 19.8578 28.3573 19.9735 28.4671L19.9737 28.4672L19.9738 28.4674L19.9739 28.4675L19.9741 28.4676C20.0898 28.5775 20.2055 28.6873 20.3327 28.803L17.4853 31.6504C16.8186 32.2589 16.3986 33.091 16.3049 33.9887C16.2619 34.5163 16.301 35.0473 16.4207 35.5629C16.7681 36.9978 18.7356 38.9888 20.7036 38.8964C21.7431 38.8668 22.7307 38.4353 23.4587 37.6926C24.361 36.8126 25.2639 35.9333 26.1903 35.0533C26.2621 34.9781 26.3395 34.9083 26.4219 34.8446C26.5163 34.9506 26.6168 35.0511 26.7228 35.1456C28.7847 37.1974 30.841 39.2534 32.8971 41.3091L32.8972 41.3091L32.8972 41.3091L32.8972 41.3092L32.8973 41.3092L32.8973 41.3092C35.0662 43.4777 37.2349 45.646 39.4097 47.809C39.7299 48.0621 39.8744 48.478 39.7801 48.8752C39.6858 49.2724 39.3699 49.579 38.97 49.6612C38.6402 49.774 38.2753 49.6609 38.0671 49.3815L35.2891 46.6034C34.996 46.2512 34.5364 46.0833 34.0852 46.1637C33.6606 46.2423 33.3186 46.5571 33.2053 46.9738C33.0624 47.3849 33.1812 47.8417 33.5062 48.1312C33.9613 48.5978 34.4221 49.0584 34.8829 49.519C35.3596 49.9955 35.8364 50.4721 36.3072 50.9557C36.8862 51.5324 36.8862 51.9279 36.3072 52.4834C35.8211 52.9695 35.4278 52.9695 34.9182 52.4605C34.5228 52.0642 34.1211 51.6683 33.7196 51.2725L33.7192 51.2721L33.7188 51.2717L33.7184 51.2713L33.7181 51.2709L33.7177 51.2706L33.7173 51.2702L33.7169 51.2698L33.7165 51.2694C33.3436 50.9018 32.9708 50.5344 32.6033 50.1669C32.391 49.9211 32.0864 49.7742 31.7619 49.7611C31.4374 49.7479 31.1219 49.8697 30.8904 50.0975C30.6567 50.326 30.5309 50.6428 30.5441 50.9694C30.5573 51.296 30.7084 51.6016 30.9598 51.8104C31.7009 52.5762 32.4645 53.3397 33.2286 54.1038L33.2288 54.104C33.5394 54.3716 33.6651 54.796 33.5505 55.1896C33.4359 55.5833 33.1019 55.8737 32.6962 55.9327C32.4463 55.9574 32.1967 55.8826 32.0014 55.7246C31.4948 55.276 31.0154 54.8093 30.535 54.3415C30.2468 54.0608 29.9582 53.7798 29.6631 53.5021C29.3965 53.1926 28.985 53.049 28.5838 53.1254C28.1826 53.2018 27.8527 53.4866 27.7186 53.8724ZM33.2758 29.124L33.2747 29.1252L33.2736 29.124H33.2758ZM33.2747 29.1252C36.47 32.3887 39.6648 35.6042 42.8591 38.7716L38.1824 43.4483C38.0439 43.2993 37.9042 43.1477 37.763 42.9946L37.7624 42.9939C37.2901 42.4816 36.8009 41.951 36.2843 41.4344L28.2288 33.3789C28.1064 33.2426 28.026 33.0737 27.9972 32.8928C27.9889 32.421 27.6963 32.001 27.2565 31.8299C26.8152 31.6502 26.3087 31.7615 25.9833 32.1096C25.6245 32.457 25.2599 32.8042 24.8953 33.1515C24.5307 33.4988 24.1661 33.846 23.8072 34.1934C23.1124 34.8412 22.4411 35.4896 21.7698 36.1379C21.4698 36.4605 21.0479 36.6418 20.6074 36.6375C20.1669 36.6331 19.7486 36.4434 19.455 36.115C19.2446 35.9318 19.0509 35.7304 18.876 35.5131C18.3984 34.9426 18.4283 34.1036 18.9454 33.5685L19.1038 33.4078L19.1039 33.4077L19.104 33.4076L19.1041 33.4075L19.1042 33.4074L19.1043 33.4073L19.1044 33.4072L19.1045 33.4071C20.6485 31.8409 22.1924 30.2748 23.7608 28.7302C24.0301 28.4461 24.4017 28.2814 24.793 28.2727C25.1843 28.264 25.5629 28.412 25.8446 28.6838C26.0878 28.8925 26.3181 29.1272 26.5452 29.3586L26.5452 29.3586L26.5452 29.3586L26.5453 29.3587L26.5453 29.3587L26.5453 29.3587L26.5454 29.3588L26.5454 29.3588L26.5459 29.3593C26.6209 29.4358 26.6957 29.5119 26.7704 29.5867C27.5348 30.3929 28.5918 30.8572 29.7026 30.8746C30.8135 30.8921 31.8845 30.4613 32.6739 29.6795C32.7641 29.5893 32.8598 29.5045 32.9584 29.4171L32.9585 29.4171L32.9585 29.417L32.9586 29.417L32.9586 29.4169L32.9587 29.4169L32.9587 29.4168L32.9588 29.4168L32.9588 29.4168C33.062 29.3254 33.1682 29.2312 33.2747 29.1252ZM36.0068 22.8737L36.0074 22.8732H36.0063L36.0068 22.8737ZM35.8763 23.0042L36.0068 22.8737C40.035 26.9712 44.086 31.0917 48.1153 35.1662C47.7006 35.5809 47.2641 36.012 46.8138 36.4567L46.8136 36.457L46.8133 36.4573L46.813 36.4576L46.8099 36.4606L46.8066 36.4639L46.8065 36.4639C46.3291 36.9355 45.8362 37.4224 45.3372 37.9213C41.3089 33.8466 37.2571 29.7259 33.2294 25.6283C34.0479 24.8316 34.9298 23.9502 35.8756 23.0049L35.8763 23.0042ZM15.7971 23.0355L15.7965 23.0361L15.7961 23.0356L15.7959 23.0355H15.7971ZM15.7965 23.0361L11.5232 27.3831L11.5193 27.3871C8.94435 30.0065 6.37597 32.6193 3.82568 35.2128C4.15285 35.5399 4.47216 35.8619 4.78803 36.1804L4.78883 36.1812L4.7892 36.1816L4.78942 36.1818L4.7901 36.1825C5.4122 36.8098 6.02097 37.4236 6.65015 38.0372L18.6422 25.837C17.6713 24.9108 16.7451 23.9846 15.7965 23.0361ZM20.5894 45.098C21.0613 45.3013 21.4002 45.7271 21.4923 46.2325V46.2336C21.405 46.4229 21.2964 46.6016 21.1684 46.7662L21.1672 46.7674C19.5006 48.4576 17.8345 50.1471 16.1449 51.8132C15.6834 52.2534 15.265 52.207 14.7324 51.6745C14.2692 51.1883 14.2463 50.7716 14.686 50.3319C15.5077 49.5102 16.3295 48.6827 17.1513 47.8551C17.9733 47.0274 18.7953 46.1996 19.6172 45.3777C19.8952 45.1215 20.2191 44.9129 20.5894 45.098ZM18.4364 42.9913L18.355 42.8853L18.3549 42.8852L18.3548 42.8851L18.3547 42.885C18.155 42.6247 17.9691 42.3825 17.7651 42.1577C17.6248 41.9978 17.4223 41.9061 17.2096 41.9061C16.9968 41.9061 16.7944 41.9978 16.6541 42.1577C14.9412 43.8477 13.2512 45.5377 11.5634 47.2484C11.1237 47.7116 11.1931 48.1048 11.7486 48.6374C11.9004 48.8457 12.1396 48.9726 12.3971 48.9816C12.6547 48.9907 12.9022 48.8809 13.0683 48.6838C14.7582 47.0168 16.4247 45.3274 18.0918 43.6368C18.2276 43.4322 18.3439 43.2154 18.4392 42.989L18.4364 42.9913ZM22.5816 49.358C23.0515 49.5851 23.3679 50.042 23.4151 50.5618L23.4156 50.5641C23.3565 50.7195 23.2788 50.8671 23.184 51.0038C21.8644 52.3464 20.5447 53.666 19.2251 54.9857C18.7848 55.4024 18.3451 55.3096 17.8126 54.7541C17.6251 54.6039 17.5123 54.3796 17.5034 54.1395C17.4945 53.8995 17.5904 53.6675 17.7662 53.5038C18.3986 52.8599 19.0369 52.2217 19.6752 51.5835L19.6755 51.5832L19.6762 51.5825C20.3225 50.9362 20.9689 50.2899 21.6093 49.6377C21.8335 49.3363 22.2315 49.2218 22.5816 49.358ZM20.6135 57.0901C20.6545 57.594 20.9642 58.0365 21.4235 58.2476C21.7754 58.4187 22.1989 58.3224 22.4422 58.016C22.873 57.5734 23.3091 57.1373 23.7456 56.7009L23.7458 56.7007C24.1769 56.2696 24.6083 55.8383 25.0351 55.4002C25.2635 55.2283 25.3939 54.9561 25.3847 54.6704C25.3754 54.3847 25.2277 54.1214 24.9886 53.9647C24.4561 53.4322 24.0628 53.4322 23.5532 53.9418C22.6732 54.8217 21.7709 55.7246 20.9139 56.6269C20.7771 56.7544 20.6738 56.9134 20.6129 57.0901H20.6135ZM26.9803 56.8817C26.9802 56.8816 26.9802 56.8816 26.9802 56.8816L26.9796 56.8832L26.9803 56.8817ZM26.9803 56.8817C27.3507 57.283 27.7519 57.6946 28.1566 58.1097C28.3589 58.3171 28.5619 58.5254 28.7625 58.7338C28.9818 59.0421 29.385 59.1581 29.7347 59.0135C30.171 58.848 30.4818 58.4571 30.5447 57.9948C30.5434 57.8087 30.478 57.6287 30.3596 57.4852C29.7844 56.8942 29.1997 56.3149 28.6316 55.7521C28.3538 55.4768 28.0799 55.2055 27.8131 54.9387C27.5514 55.502 27.293 56.1261 27.0331 56.7541L26.9803 56.8817Z" fill="#000078"/>
<path d="M45.4054 33.8718C45.8662 33.8815 46.2753 34.169 46.4406 34.5993C46.6059 35.0295 46.4944 35.517 46.1586 35.8326C45.8228 36.1483 45.3294 36.2295 44.9102 36.038C44.491 35.8465 44.2293 35.4204 44.248 34.9599C44.2518 34.6603 44.3772 34.3751 44.5955 34.1699C44.8138 33.9647 45.1062 33.8571 45.4054 33.8718Z" fill="white"/>
<path d="M15.7723 27.0168C15.1452 26.9971 14.645 26.4868 14.6378 25.8594C14.642 25.5539 14.77 25.2632 14.9925 25.0537C15.215 24.8443 15.513 24.7341 15.8182 24.7484C16.1225 24.7441 16.4159 24.8615 16.6332 25.0745C16.8506 25.2876 16.9738 25.5786 16.9756 25.8829C16.9673 26.1933 16.8355 26.4875 16.6096 26.7005C16.3836 26.9134 16.0821 27.0275 15.7717 27.0174L15.7723 27.0168Z" fill="white"/>
<path fill-rule="evenodd" clip-rule="evenodd" d="M31.3643 2.37282C29.9822 0.862477 28.0295 0.00165804 25.9822 0.000137883H25.9861C23.6022 -0.0145601 21.3643 1.14662 20.0038 3.10414C18.6433 5.06166 18.335 7.56397 19.1797 9.79318C19.2757 9.9745 19.248 10.1965 19.1104 10.3487C18.4883 11.1636 17.886 11.9783 17.2837 12.793C16.9446 13.2516 16.6055 13.7103 16.263 14.1689C16.0555 14.389 15.9993 14.7117 16.1203 14.9889C16.2412 15.2662 16.516 15.4445 16.8184 15.4421C17.7443 15.5579 18.6919 15.6737 19.6429 15.766C19.8049 15.7797 19.9423 15.8904 19.9903 16.0457C20.1732 16.4913 20.3561 16.9314 20.5389 17.3716C20.7264 17.8227 20.9138 18.2738 21.1013 18.7309C21.2101 19.0722 21.562 19.2734 21.9113 19.1941C22.1397 19.1125 22.3405 18.968 22.4903 18.7773C23.1851 17.8979 23.859 16.9977 24.5329 16.0974C24.8698 15.6472 25.2068 15.1971 25.5464 14.7496C25.6702 14.6114 25.847 14.5325 26.0325 14.5325C26.218 14.5325 26.3948 14.6114 26.5186 14.7496C26.7652 15.0753 27.0133 15.4024 27.2622 15.7306L27.2626 15.7311L27.2631 15.7318C28.0398 16.7558 28.8242 17.7901 29.5954 18.8243C29.7388 19.1119 30.0489 19.2769 30.3676 19.2351C30.6863 19.1933 30.9434 18.954 31.0079 18.6391C31.3676 17.8264 31.7065 16.9907 32.0455 16.1551L32.0708 16.0927C32.1325 15.9146 32.2991 15.7943 32.4875 15.7917C33.3679 15.7082 34.2295 15.6053 35.1063 15.5006L35.3814 15.4678C35.6806 15.4387 35.9301 15.2262 36.0062 14.9353C36.08 14.6546 36.001 14.3557 35.7981 14.1482C35.312 13.5116 34.8258 12.8691 34.3397 12.2266C33.8536 11.5841 33.3675 10.9416 32.8814 10.305C32.7808 10.1816 32.7543 10.0137 32.812 9.86534C33.0158 9.23926 33.1629 8.59616 33.2517 7.94377C33.4313 5.90433 32.7465 3.88317 31.3643 2.37282ZM20.194 7.26911C20.2005 4.0662 22.8022 1.47498 26.0051 1.48146C27.5444 1.4807 29.0205 2.09345 30.1068 3.1841C31.193 4.27474 31.7998 5.75334 31.7928 7.29261C31.7863 10.4955 29.1845 13.0867 25.9816 13.0802C22.7787 13.0738 20.1875 10.472 20.194 7.26911ZM33.8765 14.1241L33.8751 14.1221L33.8777 14.1218L33.8765 14.1241ZM33.8751 14.1221C33.5745 13.7179 33.2786 13.328 32.9852 12.9415L32.9851 12.9413C32.6237 12.4652 32.2661 11.9942 31.9085 11.5077C31.4444 12.1772 30.8557 12.751 30.1744 13.1977C29.713 13.4841 29.2187 13.7374 28.7293 13.9883L28.7293 13.9883C28.5065 14.1025 28.2848 14.2161 28.0676 14.3322C28.3181 14.663 28.5686 14.9971 28.8217 15.3347C29.2238 15.8709 29.6326 16.416 30.0586 16.9715C30.149 16.7559 30.2394 16.5424 30.3292 16.3304C30.5383 15.8366 30.744 15.3508 30.9385 14.8647C31.0339 14.5997 31.2633 14.4057 31.5404 14.3556C31.6211 14.3443 31.7074 14.3327 31.7937 14.3212L31.7951 14.321L31.7953 14.321C31.8821 14.3094 31.969 14.2977 32.0501 14.2863C32.5631 14.2642 33.0647 14.2098 33.6079 14.1509L33.6081 14.1509L33.8751 14.1221ZM18.4351 14.1705C18.3491 14.1623 18.264 14.1468 18.1806 14.1241L18.1801 14.1218C18.3346 13.9126 18.4864 13.7046 18.637 13.4982C19.1195 12.8371 19.5901 12.1923 20.1016 11.5737C21.8845 13.403 21.8845 13.403 24.0376 14.3288C23.3663 15.2082 22.6951 16.0882 22.0003 17.014C21.8475 16.6542 21.7031 16.3018 21.5619 15.9575C21.4678 15.7279 21.3752 15.502 21.2825 15.2798C21.2383 15.1454 21.1841 15.0145 21.1203 14.8882C21.0016 14.6162 20.7445 14.43 20.449 14.4021C20.1134 14.3674 19.7778 14.3269 19.4422 14.2863C19.1065 14.2458 18.7708 14.2052 18.4351 14.1705Z" fill="#000078"/>
<path d="M28.4823 6.94512C27.3019 7.13029 26.6536 6.62122 26.4684 5.44031C26.2603 5.90294 26.2139 6.39131 25.7971 6.71353C25.3803 7.01449 24.8942 6.89869 24.4081 6.99323C25.471 7.54873 25.7048 8.33582 25.1722 9.3987C26.0522 8.56517 26.8857 8.54224 27.7187 9.3987C27.544 8.94986 27.4805 8.46544 27.5335 7.98674C27.6493 7.50062 28.1119 7.29252 28.4823 6.94512Z" fill="white"/>
<path fill-rule="evenodd" clip-rule="evenodd" d="M29.0376 5.16233H27.6022C27.4634 4.74557 27.3247 4.30587 27.2094 3.82198C27.0755 3.27869 26.5886 2.89656 26.0291 2.8956C25.4796 2.8888 24.9988 3.26385 24.8717 3.79849C24.838 3.89887 24.8024 3.99944 24.7665 4.10071C24.6791 4.34765 24.5901 4.59874 24.5243 4.86137C24.4956 5.01276 24.3529 5.1148 24.2004 5.09296C23.9526 5.07762 23.6944 5.0828 23.4397 5.08792C23.3136 5.09045 23.1885 5.09296 23.0659 5.09296C22.5186 5.04597 22.0108 5.38126 21.8391 5.90299C21.6773 6.42778 21.8856 6.99603 22.3482 7.29201C22.6497 7.5236 22.9507 7.75464 23.2746 7.9633C23.3413 7.99471 23.3918 8.05265 23.4138 8.12303C23.4358 8.19342 23.4273 8.2698 23.3904 8.33363C23.2785 8.63219 23.1816 8.94603 23.0875 9.25052C23.0649 9.3237 23.0425 9.39635 23.02 9.46811C22.839 9.96547 23.009 10.5226 23.4368 10.8342C23.8742 11.1511 24.4682 11.1415 24.8952 10.8107C25.0456 10.6949 25.1961 10.585 25.3466 10.4751C25.4971 10.3651 25.6476 10.2552 25.7981 10.1394C25.855 10.0785 25.9346 10.044 26.0179 10.044C26.1012 10.044 26.1808 10.0785 26.2378 10.1394C26.5158 10.371 26.8397 10.6026 27.1406 10.8107C27.5629 11.1709 28.1785 11.1902 28.6225 10.8571C29.0602 10.5415 29.2224 9.96584 29.0141 9.46811C28.9685 9.33129 28.9264 9.19091 28.8838 9.04838C28.818 8.82901 28.7508 8.60453 28.6667 8.38006C28.6051 8.25199 28.6564 8.09813 28.7825 8.03266C28.8764 7.96561 28.9723 7.89856 29.069 7.83096C29.3061 7.66504 29.5481 7.49578 29.7783 7.31494C30.1899 7.00249 30.3573 6.46296 30.195 5.97236C30.0328 5.47462 29.5608 5.14429 29.0376 5.16233ZM26.0515 5.16235C26.2367 6.34327 26.8845 6.85233 28.0654 6.66717C27.9625 6.7637 27.8526 6.84947 27.7449 6.93344C27.4652 7.15168 27.2011 7.35774 27.1166 7.70879C27.0637 8.18748 27.1272 8.67189 27.3018 9.12074C26.4683 8.26428 25.6353 8.28722 24.7554 9.12074C25.2879 8.05786 25.0541 7.27077 23.9912 6.71528C24.1534 6.68374 24.3155 6.67561 24.4751 6.66761C24.7939 6.65162 25.1025 6.63614 25.3802 6.43557C25.6783 6.2051 25.7869 5.88992 25.9008 5.55963C25.9461 5.42814 25.9923 5.29425 26.0515 5.16235Z" fill="#000078"/>
</svg>
