<svg width="107" height="111" viewBox="0 0 107 111" fill="none" xmlns="http://www.w3.org/2000/svg">
<path d="M67.8423 9.8482C45.3816 3.12586 26.2333 18.506 20.2355 26.9446C19.9575 27.3358 19.6681 27.7113 19.3556 28.0757C6.35561 43.237 7.83016 67.9792 16.4773 77.5722C26.9308 89.169 22.437 96.8662 22.7607 103.567C25.6919 98.3722 30.4858 98.4096 45.343 91.8278C60.2002 85.246 52.3422 71.2954 50.8303 66.2778C49.3184 61.2603 52.5911 57.4786 56.0902 60.8196C58.8895 63.4924 58.8396 75.9053 58.4647 81.7777C61.3852 97.819 72.7155 98.6689 78.0156 97.0887C87.6485 91.4108 100.69 88.6173 106.007 87.9303C99.1356 83.0119 102.142 68.2296 98.0158 54.8722C93.8899 41.5148 82.8799 42.9799 69.2306 48.3726C61.8354 51.2943 59.0207 49.3322 58.2533 46.6101C57.6182 44.3574 59.9449 42.7066 62.2819 42.5792C81.4894 41.5322 82.5116 30.0863 80.4184 24.1362C77.3138 17.2308 80.2058 9.23471 82.0398 6.09986C77.3541 9.18175 73.7808 11.6256 67.8423 9.8482Z" fill="white" fill-opacity="0.3"/>
</svg>
