<svg width="232" height="276" viewBox="0 0 232 276" fill="none" xmlns="http://www.w3.org/2000/svg">
<g opacity="0.3">
<path d="M182.639 40.9794C163.599 128.867 95.6883 209.726 7 250.217" stroke="white" stroke-width="1.0564" stroke-miterlimit="10"/>
<path d="M177.324 62.4986C185.438 52.2629 189.928 39.3163 189.755 27.2005C189.711 24.1716 189.29 20.8457 186.734 19.2472C186.135 18.9123 185.313 18.5397 184.362 18.6097C182.904 18.8255 182.072 20.078 181.24 21.3305C177.458 27.89 177.156 35.276 177.647 42.3328C177.918 49.3518 177.469 54.8534 177.324 62.4986Z" fill="white"/>
<path d="M167.711 86.2864C171.501 73.9165 170.692 60.7973 165.309 50.0025C163.929 47.4162 162.089 44.755 158.87 44.2305C157.951 44.0807 156.962 44.1557 156.295 44.7555C155.1 45.5053 154.618 47.0796 154.434 48.4665C153.447 55.626 156.185 62.4478 159.659 68.4449C162.902 74.4045 164.743 79.4271 167.711 86.2864Z" fill="white"/>
<path d="M154.277 116.651C159.584 104.621 160.487 91.3954 156.492 80.1764C155.419 77.4182 153.961 74.3614 151.077 73.6506C150.169 73.5007 149.261 73.3508 148.445 73.6853C147.039 74.3918 146.406 75.6953 146.228 77.0737C144.291 84.2628 146.19 91.3812 148.586 97.6431C151.142 104.166 151.992 109.234 154.277 116.651Z" fill="white"/>
<path d="M136.352 144.324C141.659 132.295 142.562 119.069 138.567 107.85C137.494 105.092 136.036 102.035 133.152 101.324C132.244 101.174 131.336 101.024 130.52 101.359C129.114 102.065 128.482 103.369 128.303 104.747C126.366 111.936 128.265 119.055 130.661 125.317C133.217 131.839 134.226 137.168 136.352 144.324Z" fill="white"/>
<path d="M107.616 178.146C114.126 166.619 116.185 153.414 113.534 141.756C112.984 138.861 111.76 135.852 109.038 134.696C108.206 134.324 107.307 134.173 106.5 134.505C105.178 134.985 104.263 136.467 103.864 137.803C101.063 144.81 102.214 152.011 104.014 158.62C105.814 165.229 106.307 170.685 107.616 178.146Z" fill="white"/>
<path d="M84.1528 200.822C90.4643 190.49 93.5181 177.743 92.1779 165.647C91.9148 162.577 91.207 159.431 88.8652 157.87C88.2635 157.535 87.4393 157.163 86.707 157.271C85.4647 157.526 84.8508 158.818 84.2368 160.11C81.3891 166.608 81.8113 173.894 82.5864 180.775C83.7409 187.953 83.5736 193.277 84.1528 200.822Z" fill="white"/>
<path d="M165.558 98.7134C179.483 96.8686 193.653 90.2642 204.437 80.2373C207.174 77.7972 209.817 74.8622 209.87 71.5116C209.919 70.5596 209.661 69.7985 209.097 69.228C208.133 68.3535 206.342 68.5461 204.951 69.0428C196.891 71.1088 189.884 76.9428 183.819 82.928C177.825 88.6846 172.4 92.613 165.558 98.7134Z" fill="white"/>
<path d="M153.865 121.812C167.779 123.312 183.047 119.644 196.038 111.937C199.165 109.99 202.678 107.617 203.452 104.313C203.742 103.38 203.791 102.409 203.215 101.827C202.544 100.74 200.862 100.469 199.275 100.704C191.079 101.102 182.924 105.423 175.49 109.86C168.225 114.57 162.332 117.296 153.865 121.812Z" fill="white"/>
<path d="M135.057 149.903C148.128 154.037 163.706 153.326 178.087 148.165C181.596 146.735 185.496 144.869 186.932 141.85C187.467 140.937 187.515 139.944 187.247 139.149C186.88 137.838 185.246 137.321 183.539 137.043C175.492 135.73 166.693 138.549 158.48 141.963C150.51 145.417 143.929 146.846 135.057 149.903Z" fill="white"/>
<path d="M106.782 183.907C120.583 184.9 135.831 181.237 148.877 173.309C152.001 171.366 155.342 168.724 156.043 165.659C156.332 164.728 156.382 163.758 155.807 163.177C155.136 162.091 153.384 162.055 151.872 162.056C143.686 162.453 135.469 167.001 128.213 171.703C120.956 176.405 115.071 179.127 106.782 183.907Z" fill="white"/>
<path d="M82.337 204.557C93.6197 211.813 108.749 214.855 123.609 212.738C127.349 212.341 131.308 211.213 133.732 208.295C134.516 207.403 134.734 206.673 134.779 205.657C134.723 204.114 133.144 203.338 131.811 202.604C124.51 199.337 115.478 200.128 106.721 201.732C98.2106 203.376 91.6876 203.564 82.337 204.557Z" fill="white"/>
</g>
</svg>
