<svg width="293" height="280" viewBox="0 0 293 280" fill="none" xmlns="http://www.w3.org/2000/svg">
<g opacity="0.3">
<path d="M55.6592 224.364C94.7921 140.932 179.757 73.1703 275.432 49.0018" stroke="white" stroke-width="1.0564" stroke-miterlimit="10"/>
<path d="M64.7982 203.156C54.4694 211.695 47.2091 223.647 44.8116 235.703C44.2123 238.717 43.93 242.101 46.1594 244.196C46.6911 244.647 47.4375 245.181 48.4081 245.301C49.9201 245.377 51.0222 244.3 52.1243 243.223C57.3177 237.468 59.1893 230.2 60.1928 223.1C61.4108 216.082 63.0291 210.712 64.7982 203.156Z" fill="white"/>
<path d="M79.6264 181.389C73.2776 192.921 71.3148 206.097 74.3613 217.862C75.1806 220.698 76.4385 223.699 79.5087 224.849C80.3859 225.178 81.3785 225.297 82.1634 224.833C83.5023 224.323 84.3104 222.855 84.7837 221.515C87.2656 214.604 85.9963 207.299 83.8268 200.669C81.8765 194.121 81.115 188.776 79.6264 181.389Z" fill="white"/>
<path d="M99.939 154.086C92.1281 164.982 88.4411 177.933 90.043 189.856C90.5265 192.805 91.3309 196.127 94.0456 197.4C94.9161 197.728 95.7866 198.055 96.6681 197.884C98.2135 197.459 99.117 196.29 99.5853 194.957C103.026 188.202 102.642 180.762 101.582 174.075C100.42 167.097 100.644 161.898 99.939 154.086Z" fill="white"/>
<path d="M124.008 130.185C116.197 141.08 112.51 154.031 114.111 165.954C114.595 168.904 115.399 172.225 118.114 173.498C118.984 173.826 119.855 174.154 120.736 173.982C122.282 173.558 123.185 172.389 123.654 171.056C127.094 164.301 126.71 156.861 125.651 150.173C124.488 143.195 124.61 137.707 124.008 130.185Z" fill="white"/>
<path d="M160.146 102.232C151.21 112.386 146.363 125.087 146.544 137.183C146.481 140.166 147.067 143.394 149.539 145.08C150.291 145.615 151.156 145.942 152.032 145.772C153.454 145.558 154.68 144.267 155.361 143.021C159.639 136.62 160.012 129.244 159.613 122.327C159.214 115.411 159.875 109.898 160.146 102.232Z" fill="white"/>
<path d="M188.521 84.2571C179.999 93.2552 174.233 105.298 173.013 117.568C172.626 120.667 172.669 123.929 174.687 125.944C175.22 126.396 175.968 126.93 176.726 126.968C178.026 126.962 178.916 125.802 179.806 124.642C184.04 118.76 185.161 111.445 185.843 104.463C186.206 97.1105 187.503 91.8602 188.521 84.2571Z" fill="white"/>
<path d="M84.8793 170.21C70.8548 169.335 55.594 173.122 42.9324 180.954C39.7406 182.837 36.5367 185.229 35.7827 188.535C35.5354 189.467 35.6284 190.271 36.0616 190.945C36.8228 191.997 38.6168 192.154 40.0829 191.932C48.4096 191.451 56.4941 187.037 63.6878 182.29C70.7639 177.755 76.9001 174.92 84.8793 170.21Z" fill="white"/>
<path d="M101.729 149.803C88.4946 145.642 72.8661 146.306 58.614 151.383C55.1639 152.694 51.2498 154.352 49.8084 157.453C49.3321 158.315 49.0816 159.261 49.5211 159.945C49.9484 161.144 51.5298 161.734 53.1234 161.81C61.1863 163 70.0252 160.322 78.1862 157.39C86.2405 154.158 92.5452 152.613 101.729 149.803Z" fill="white"/>
<path d="M126.788 125.73C114.957 119.18 99.691 116.874 84.6681 119.139C80.9666 119.857 76.7965 120.927 74.7788 123.595C74.0702 124.383 73.8184 125.342 73.915 126.169C74 127.519 75.4789 128.337 77.0778 128.938C84.6157 131.768 93.7377 130.713 102.415 128.964C110.863 127.129 117.546 127.003 126.788 125.73Z" fill="white"/>
<path d="M162.453 97.3815C149.219 93.7405 133.606 94.4042 119.248 99.6909C115.801 101.001 111.997 102.957 110.676 105.839C110.2 106.7 109.95 107.645 110.389 108.328C110.816 109.526 112.514 109.9 113.988 110.191C122.043 111.38 130.992 108.488 139.039 105.26C147.086 102.032 153.385 100.488 162.453 97.3815Z" fill="white"/>
<path d="M191.442 81.5586C181.997 72.3841 167.96 66.5376 153.123 65.7222C149.417 65.386 145.349 65.7129 142.4 68.0635C141.458 68.7733 141.096 69.4364 140.844 70.4077C140.582 71.9083 141.953 72.9606 143.093 73.9257C149.499 78.4833 158.414 79.4577 167.23 79.5946C175.816 79.6442 182.176 80.7182 191.442 81.5586Z" fill="white"/>
</g>
</svg>
