<svg xmlns="http://www.w3.org/2000/svg" viewBox="0 0 111 40"><path d="M3 0h105c1.7 0 3 1.3 3 3v34c0 1.7-1.3 3-3 3H3c-1.7 0-3-1.3-3-3V3c0-1.7 1.3-3 3-3z" fill="#61b8ff"/><path d="M38.6 21c-.2-.1-.4 0-.4.2v.8c0 1.4.4 2.6 1.3 3.5.9.9 2 1.4 3.4 1.4s2.5-.5 3.4-1.4c.9-.9 1.3-2.1 1.3-3.5 0-.3 0-.5-.1-.8 0-.2-.3-.3-.4-.2l-1 .6c-.1.1-.1.2-.1.3v.1c0 1-.3 1.8-.9 2.4-.6.6-1.3 1-2.2 1-.9 0-1.7-.3-2.3-1-.6-.6-.8-1.4-.8-2.4 0-.1-.1-.2-.1-.3l-1.1-.7zm-9.3 5.6h-3.2c-.2 0-.3-.1-.3-.3v-8.7c0-.2.1-.3.3-.3h3.2c1.4 0 2.6.4 3.5 1.3.9.9 1.4 2 1.4 3.4s-.5 2.5-1.4 3.4c-.9.8-2.1 1.2-3.5 1.2zm0-1.4c1 0 1.8-.3 2.3-.9.6-.6.9-1.4.9-2.3 0-.9-.3-1.7-.9-2.3-.6-.6-1.3-.9-2.3-.9h-1.5c-.2 0-.3.1-.3.3v5.8c0 .2.1.3.3.3h1.5zm25.7.3c.9.9 2.1 1.3 3.5 1.3 1.5 0 2.7-.6 3.6-1.8.1-.1 0-.3-.1-.4l-.8-.4c-.1-.1-.3 0-.4.1-.2.3-.5.5-.8.7-.4.3-.9.4-1.4.4-.9 0-1.7-.3-2.3-1-.6-.6-.9-1.4-.9-2.4s.3-1.8.9-2.4c.6-.6 1.4-1 2.3-1 .5 0 .9.1 1.4.4.3.2.6.4.8.7.1.1.3.2.4.1l.9-.4c.2-.1.2-.3.1-.4-.9-1.2-2.1-1.8-3.6-1.8-1.4 0-2.6.5-3.5 1.4-.9.9-1.4 2-1.4 3.5-.1 1.3.3 2.5 1.3 3.4zm17.7.8c0 .2-.1.3-.3.3h-5.8c-.2 0-.3-.1-.3-.3v-8.7c0-.2.1-.3.3-.3h5.8c.2 0 .3.1.3.3v.8c0 .2-.1.3-.3.3h-4.2c-.2 0-.3.1-.3.3v1.8c0 .2.1.3.3.3h4.1c.2 0 .3.1.3.3v.8c0 .2-.1.3-.3.3h-4.1c-.2 0-.3.1-.3.3v2c0 .2.1.3.3.3h4.2c.2 0 .3.1.3.3v.9zm8.8.5c1.4 0 2.5-.5 3.4-1.4.9-.9 1.3-2.1 1.3-3.5s-.4-2.5-1.3-3.5c-.9-.9-2-1.4-3.4-1.4s-2.5.5-3.4 1.4c-.9.9-1.3 2.1-1.3 3.5s.4 2.6 1.3 3.5c.9 1 2 1.4 3.4 1.4zm2.3-2.4c-.6.6-1.3 1-2.2 1-.9 0-1.7-.3-2.3-1-.6-.6-.8-1.4-.8-2.4s.3-1.8.8-2.4c.6-.6 1.3-1 2.3-1 .9 0 1.7.3 2.2 1 .6.6.9 1.4.9 2.4-.1 1-.4 1.8-.9 2.4z" fill="#f6ed59"/><g><path d="M42.8 21l-4.6-2.7 4.6-2.7 4.6 2.7-4.6 2.7zm-.1-5.5h0s0 0 0 0l.1-.2-.1.2z" fill="none" stroke="#f6ed59" stroke-width="1.5"/></g><g><path d="M48.6 19.3c-.1.1-.2.2-.1.4l.7 1.8c.1.2.2.2.4.2l.6-.3c.2-.1.2-.2.2-.4l-.8-1.9c-.1-.2-.3-.2-.4-.1l-.6.3z" fill="#f6ed59"/></g></svg>